<svg viewBox="0 0 100 100" fill="none" xmlns="http://www.w3.org/2000/svg">
  <circle cx="50" cy="50" r="50" fill="#F51E33"/>
  <circle cx="50" cy="50" r="43" stroke="rgba(255,255,255,0.45)" stroke-width="1.2" stroke-dasharray="3.5 2.5" fill="none"/>
  <circle cx="50" cy="57" r="24" stroke="white" stroke-width="2.5" fill="none"/>
  <path d="M31 43 L27 27 L41 35" stroke="white" stroke-width="2.5" stroke-linejoin="round" stroke-linecap="round" fill="none"/>
  <path d="M63 38 L69 23 L75 37" stroke="white" stroke-width="2.5" stroke-linejoin="round" stroke-linecap="round" fill="none"/>
  <path d="M39 53 Q43 48 47 53" stroke="white" stroke-width="2.2" stroke-linecap="round" fill="none"/>
  <path d="M53 53 Q57 48 61 53" stroke="white" stroke-width="2.2" stroke-linecap="round" fill="none"/>
  <path d="M50 59 L48 62 L52 62 Z" fill="white"/>
  <path d="M46 64 Q48 68 50 66 Q52 68 54 64" stroke="white" stroke-width="2" stroke-linecap="round" stroke-linejoin="round" fill="none"/>
  <line x1="15" y1="57" x2="37" y2="60" stroke="white" stroke-width="1.5" stroke-linecap="round"/>
  <line x1="14" y1="63" x2="37" y2="63" stroke="white" stroke-width="1.5" stroke-linecap="round"/>
  <line x1="15" y1="69" x2="37" y2="66" stroke="white" stroke-width="1.5" stroke-linecap="round"/>
  <line x1="85" y1="57" x2="63" y2="60" stroke="white" stroke-width="1.5" stroke-linecap="round"/>
  <line x1="86" y1="63" x2="63" y2="63" stroke="white" stroke-width="1.5" stroke-linecap="round"/>
  <line x1="85" y1="69" x2="63" y2="66" stroke="white" stroke-width="1.5" stroke-linecap="round"/>
</svg>
